ffmpeg started on 2016-11-28 at 05:52:19
Report written to "Output/NVENCh264/results/ffmpeg/old_town_cross_2160p50llhp11000k.log"
Command line:
Tools/ffmpeg/ffmpeg -benchmark -y -i Input/y4m/old_town_cross_2160p50.y4m -c:v h264_nvenc -preset llhp -b:v 11000k -an Output/NVENCh264/encoded/old_town_cross_2160p50llhp11000k.mkv
ffmpeg version N-82227-gdb23fde Copyright (c) 2000-2016 the FFmpeg developers
  built with gcc 5.4.0 (Ubuntu 5.4.0-6ubuntu1~16.04.2) 20160609
  configuration: --prefix=/home/jaroslav/ffmpeg_build --pkg-config-flags=--static --extra-cflags=-I/home/jaroslav/ffmpeg_build/include --extra-ldflags=-L/home/jaroslav/ffmpeg_build/lib --bindir=/home/jaroslav/bin --enable-gpl --enable-libass --enable-libfdk-aac --enable-libfreetype --enable-libmp3lame --enable-libopus --enable-libtheora --enable-libvorbis --enable-libvpx --enable-libx264 --enable-libx265 --enable-nvenc --enable-libmfx --enable-libxvid --enable-libgsm --enable-libopencore-amrnb --enable-version3 --enable-nonfree
  libavutil      55. 35.100 / 55. 35.100
  libavcodec     57. 66.101 / 57. 66.101
  libavformat    57. 57.100 / 57. 57.100
  libavdevice    57.  2.100 / 57.  2.100
  libavfilter     6. 66.100 /  6. 66.100
  libswscale      4.  3.100 /  4.  3.100
  libswresample   2.  4.100 /  2.  4.100
  libpostproc    54.  2.100 / 54.  2.100
Input #0, yuv4mpegpipe, from 'Input/y4m/old_town_cross_2160p50.y4m':
  Duration: 00:00:10.00, start: 0.000000, bitrate: 4976642 kb/s
    Stream #0:0: Video: rawvideo (I420 / 0x30323449), yuv420p(progressive), 3840x2160, SAR 1:1 DAR 16:9, 50 fps, 50 tbr, 50 tbn, 50 tbc
[h264_nvenc @ 0x40c7120] The variable bitrate rate-control requires the 'qmin' and/or 'qmax' option set.
Output #0, matroska, to 'Output/NVENCh264/encoded/old_town_cross_2160p50llhp11000k.mkv':
  Metadata:
    encoder         : Lavf57.57.100
    Stream #0:0: Video: h264 (h264_nvenc) (Main) (H264 / 0x34363248), yuv420p, 3840x2160 [SAR 1:1 DAR 16:9], q=-1--1, 11000 kb/s, 50 fps, 1k tbn, 50 tbc
    Metadata:
      encoder         : Lavc57.66.101 h264_nvenc
    Side data:
      cpb: bitrate max/min/avg: 0/0/11000000 buffer size: 22000000 vbv_delay: -1
Stream mapping:
  Stream #0:0 -> #0:0 (rawvideo (native) -> h264 (h264_nvenc))
Press [q] to stop, [?] for help
frame=   20 fps=0.0 q=0.0 size=       0kB time=00:00:00.00 bitrate=N/A speed=   0x    frame=   38 fps= 36 q=36.0 size=       1kB time=00:00:00.14 bitrate=  42.4kbits/s speed=0.135x    frame=   43 fps= 28 q=33.0 size=       1kB time=00:00:00.24 bitrate=  24.8kbits/s speed=0.156x    frame=   61 fps= 30 q=32.0 size=       1kB time=00:00:00.60 bitrate=  10.0kbits/s speed=0.291x    frame=   78 fps= 28 q=32.0 size=       1kB time=00:00:00.94 bitrate=   6.4kbits/s speed=0.34x    frame=   96 fps= 29 q=33.0 size=       1kB time=00:00:01.30 bitrate=   4.6kbits/s speed=0.396x    frame=  114 fps= 30 q=33.0 size=       1kB time=00:00:01.66 bitrate=   3.6kbits/s speed=0.436x    frame=  132 fps= 31 q=32.0 size=       1kB time=00:00:02.02 bitrate=   3.0kbits/s speed=0.468x    frame=  150 fps= 31 q=33.0 size=       1kB time=00:00:02.38 bitrate=   2.5kbits/s speed=0.492x    frame=  168 fps= 31 q=31.0 size=       1kB time=00:00:02.74 bitrate=   2.2kbits/s speed=0.512x    frame=  186 fps= 32 q=33.0 size=       1kB time=00:00:03.10 bitrate=   1.9kbits/s speed=0.529x    frame=  204 fps= 32 q=34.0 size=       1kB time=00:00:03.46 bitrate=   1.7kbits/s speed=0.543x    frame=  222 fps= 32 q=32.0 size=       1kB time=00:00:03.82 bitrate=   1.6kbits/s speed=0.555x    frame=  239 fps= 32 q=30.0 size=    5139kB time=00:00:04.16 bitrate=10116.7kbits/s speed=0.563x    frame=  257 fps= 33 q=32.0 size=    5139kB time=00:00:04.52 bitrate=9311.2kbits/s speed=0.572x    frame=  275 fps= 33 q=32.0 size=    5139kB time=00:00:04.88 bitrate=8624.4kbits/s speed=0.58x    frame=  293 fps= 33 q=35.0 size=    6537kB time=00:00:05.24 bitrate=10217.9kbits/s speed=0.587x    frame=  311 fps= 33 q=35.0 size=    6537kB time=00:00:05.60 bitrate=9561.2kbits/s speed=0.593x    frame=  329 fps= 33 q=34.0 size=    6537kB time=00:00:05.96 bitrate=8983.8kbits/s speed=0.598x    frame=  347 fps= 33 q=32.0 size=    6537kB time=00:00:06.32 bitrate=8472.1kbits/s speed=0.603x    frame=  365 fps= 33 q=31.0 size=    6537kB time=00:00:06.68 bitrate=8015.6kbits/s speed=0.608x    frame=  383 fps= 33 q=32.0 size=    6537kB time=00:00:07.04 bitrate=7605.8kbits/s speed=0.612x    frame=  401 fps= 33 q=32.0 size=    6537kB time=00:00:07.40 bitrate=7235.8kbits/s speed=0.616x    frame=  411 fps= 33 q=31.0 size=    6537kB time=00:00:07.60 bitrate=7045.4kbits/s speed=0.606x    frame=  429 fps= 33 q=33.0 size=    6537kB time=00:00:07.96 bitrate=6726.8kbits/s speed=0.61x    frame=  447 fps= 33 q=33.0 size=    6537kB time=00:00:08.32 bitrate=6435.8kbits/s speed=0.613x    frame=  463 fps= 33 q=33.0 size=    6537kB time=00:00:08.64 bitrate=6197.5kbits/s speed=0.611x    frame=  477 fps= 33 q=33.0 size=   11687kB time=00:00:08.92 bitrate=10732.4kbits/s speed=0.609x    frame=  488 fps= 32 q=33.0 size=   11687kB time=00:00:09.14 bitrate=10474.1kbits/s speed=0.603x    frame=  500 fps= 32 q=33.0 Lsize=   13227kB time=00:00:09.98 bitrate=10856.4kbits/s speed=0.642x    
video:13223kB audio:0kB subtitle:0kB other streams:0kB global headers:0kB muxing overhead: 0.034786%
bench: utime=1.148s
bench: maxrss=1408808kB
